<svg width="401" height="238" viewBox="0 0 401 238" fill="none" xmlns="http://www.w3.org/2000/svg">
<g clip-path="url(#clip0_1_46)">
<rect width="400" height="238" transform="translate(0.5)" fill="url(#paint0_radial_1_46)"/>
<path d="M333.57 236.071C329.914 232.986 327.693 228.111 328.275 223.365C328.858 218.619 332.465 214.257 337.144 213.249C341.823 212.241 347.157 215.031 348.578 219.596C349.36 210.794 350.261 201.623 354.946 194.127C359.188 187.34 366.536 182.483 374.499 181.614C382.462 180.745 390.846 184.027 395.812 190.305C400.778 196.583 401.994 205.711 398.516 212.918C395.954 218.228 391.233 222.18 386.287 225.395C370.305 235.695 351.136 239.884 332.307 237.191" fill="#F2F2F2"/>
<path d="M387.938 184.209C381.367 189.555 375.339 195.534 369.942 202.059C361.494 212.237 354.658 223.647 349.672 235.894C349.307 236.787 350.76 237.176 351.121 236.293C359.279 216.389 372.302 198.847 389 185.27C389.75 184.66 388.681 183.604 387.938 184.209Z" fill="white"/>
<path d="M197.072 15.0261C197.072 15.1337 197.029 15.2368 196.953 15.3129C196.876 15.389 196.773 15.4319 196.665 15.4322H196.47C196.17 15.1723 195.877 14.9002 195.592 14.62H196.665C196.773 14.6203 196.876 14.6632 196.953 14.7393C197.029 14.8154 197.072 14.9185 197.072 15.0261Z" fill="#F2F2F2"/>
<path d="M206.829 0H104.783C104.028 0.000837358 103.305 0.300609 102.771 0.833553C102.238 1.3665 101.938 2.08909 101.937 2.84278V58.074C101.938 58.8277 102.238 59.5502 102.771 60.0832C103.305 60.6161 104.028 60.9159 104.783 60.9167H206.829C207.584 60.9159 208.307 60.6161 208.841 60.0832C209.374 59.5502 209.674 58.8277 209.675 58.074V2.84278C209.674 2.08909 209.374 1.3665 208.841 0.833553C208.307 0.300609 207.584 0.000837358 206.829 0ZM208.862 58.074C208.862 58.6124 208.648 59.1288 208.267 59.5095C207.885 59.8903 207.368 60.1043 206.829 60.1045H104.783C104.244 60.1043 103.727 59.8903 103.346 59.5095C102.964 59.1288 102.75 58.6124 102.75 58.074V2.84278C102.75 2.30431 102.964 1.78795 103.346 1.40719C103.727 1.02644 104.244 0.812438 104.783 0.812223H206.829C207.368 0.812438 207.885 1.02644 208.267 1.40719C208.648 1.78795 208.862 2.30431 208.862 2.84278V58.074Z" fill="#3F3D56"/>
<path d="M144.918 24.0255C143.703 21.1096 141.812 18.6811 139.064 17.0729C136.181 15.3794 132.884 13.9702 129.567 13.4626C126.246 12.9722 122.86 13.1614 119.614 14.019C119.191 14.1286 118.752 14.2464 118.313 14.3763C117.172 14.6707 116.086 15.1509 115.101 15.7977C115.069 15.818 115.036 15.8383 115.004 15.8627C113.743 16.7886 112.881 18.3156 112.174 19.6842C111.503 20.996 111.08 22.4417 111.446 23.9078C111.843 25.2451 112.669 26.4151 113.796 27.2379C114.581 27.8552 115.609 28.6349 116.658 28.6512C116.906 28.6567 117.153 28.6153 117.386 28.5293C117.459 28.5037 117.528 28.4697 117.593 28.4278C118.016 28.5546 118.453 28.6269 118.894 28.643C120.679 28.7243 122.464 27.9689 124.298 27.3516C124.727 27.2018 125.168 27.0837 125.615 26.9983C126.415 26.8242 127.247 26.8521 128.034 27.0795C128.179 27.1205 128.322 27.1707 128.461 27.2298C129.819 27.866 130.965 28.8797 131.762 30.1497C132.539 31.3031 133.051 32.6148 133.905 33.7235C134.328 34.2949 134.868 34.7709 135.488 35.1207C136.107 35.4705 136.794 35.6863 137.503 35.7541C139.633 35.9896 142.308 35.8759 144.142 34.5966C144.639 34.2571 145.066 33.824 145.398 33.3214C145.431 33.2727 145.463 33.224 145.492 33.1752C147.179 30.4015 146.073 26.783 144.918 24.0255ZM116.829 19.7654C117.236 19.8101 117.646 19.8588 118.053 19.9035C117.275 20.0422 116.548 20.3825 115.943 20.8903C115.713 21.0852 115.5 21.2985 115.304 21.5279C115.313 21.5117 115.313 21.4914 115.321 21.4751C115.44 21.1014 115.636 20.7564 115.895 20.4621C116.155 20.1678 116.473 19.9306 116.829 19.7654ZM141.341 30.0807C141.414 30.0644 141.491 30.0522 141.564 30.04C141.681 30.0218 141.792 29.9774 141.89 29.9101C141.89 29.9223 141.894 29.9385 141.894 29.9507C141.894 30.005 141.898 30.0593 141.906 30.1131C141.885 30.1456 141.869 30.1781 141.849 30.2106C141.678 30.166 141.511 30.1213 141.341 30.0807ZM140.206 20.204C141.106 21.0532 141.873 22.0335 142.479 23.1118C141.761 22.236 140.968 21.4247 140.109 20.6873C140.173 20.5344 140.207 20.37 140.206 20.204ZM139.218 31.7254C139.183 31.7848 139.157 31.8492 139.141 31.9163C139.031 31.9203 138.918 31.9244 138.804 31.9244H138.747C138.743 31.9082 138.734 31.8879 138.731 31.8716C138.706 31.7985 138.686 31.7254 138.661 31.6523C138.848 31.6767 139.031 31.701 139.218 31.7254ZM130.526 22.6163C130.537 22.5342 130.54 22.4512 130.534 22.3686C130.624 22.436 130.728 22.4806 130.839 22.4986C130.851 22.5026 130.868 22.5026 130.88 22.5067C130.957 22.5513 131.03 22.592 131.108 22.6366L131.083 22.6732C130.896 22.6529 130.709 22.6366 130.526 22.6163ZM136.966 20.5939H136.954C136.686 20.4274 136.417 20.2609 136.145 20.1025C136.421 20.2568 136.698 20.4233 136.966 20.5939ZM135.47 28.2044C135.428 28.2464 135.392 28.2943 135.364 28.3466C135.344 28.3181 135.328 28.2938 135.307 28.2653C135.358 28.2377 135.413 28.2172 135.47 28.2044ZM131.827 20.2487C131.737 20.177 131.637 20.1182 131.53 20.0741C131.007 19.8723 130.47 19.7054 129.924 19.5745C129.843 19.4974 129.762 19.4202 129.685 19.339C130.146 19.4282 130.602 19.5435 131.051 19.6842C131.625 19.8682 132.188 20.0852 132.738 20.334C132.433 20.3015 132.132 20.2731 131.827 20.2487ZM128.729 15.1561C129.899 15.312 131.052 15.5758 132.173 15.9439C132.059 15.9155 131.945 15.8911 131.831 15.8627C130.754 15.619 129.656 15.3591 128.55 15.1357C128.611 15.1439 128.668 15.1479 128.729 15.1561Z" fill="#CCCCCC"/>
<path d="M133.109 46.6933C132.083 46.6647 130.807 46.6289 129.825 45.9119C129.532 45.6895 129.291 45.4059 129.12 45.0809C128.948 44.7559 128.85 44.3975 128.832 44.0306C128.814 43.7698 128.857 43.5085 128.957 43.2671C129.057 43.0257 129.212 42.8106 129.409 42.6387C129.702 42.4203 130.045 42.2787 130.407 42.2266C130.768 42.1746 131.138 42.2139 131.48 42.3409L130.643 36.2299L131.258 36.1458L132.242 43.33L131.729 43.0948C131.134 42.8222 130.317 42.6837 129.809 43.1119C129.685 43.2239 129.588 43.363 129.526 43.5185C129.464 43.674 129.439 43.8417 129.452 44.0086C129.467 44.2817 129.541 44.5484 129.668 44.7904C129.796 45.0325 129.974 45.2443 130.19 45.4115C130.955 45.9696 131.972 46.0416 133.126 46.074L133.109 46.6933Z" fill="#3F3D56"/>
<path d="M127.604 36.7568H124.263V37.3764H127.604V36.7568Z" fill="#3F3D56"/>
<path d="M138.149 36.7568H134.808V37.3764H138.149V36.7568Z" fill="#3F3D56"/>
<path d="M118.459 28.201C115.769 27.8946 113.686 25.3199 113.457 22.7074C113.185 19.5995 114.997 16.6478 117.482 14.9037C120.082 13.0799 123.321 12.3183 126.455 12.1506C132.568 11.8467 138.576 13.8248 143.31 17.7001C145.658 19.6483 147.851 22.1299 148.683 25.1273C149.404 27.7305 148.817 30.6795 146.721 32.5027C146.202 32.9495 145.597 33.284 144.942 33.4853C144.288 33.6866 143.599 33.7502 142.919 33.6721C141.292 33.5034 139.792 32.6492 138.493 31.7058C135.966 29.8708 133.892 27.3144 130.814 26.3555C128.557 25.6523 125.628 26.2712 124.248 28.3101C123.935 28.7768 123.733 29.3084 123.655 29.8649C123.627 29.9835 123.644 30.1086 123.705 30.2147C123.765 30.3209 123.863 30.4001 123.98 30.4365C124.099 30.4685 124.226 30.4524 124.333 30.3916C124.44 30.3309 124.519 30.2304 124.552 30.1119C124.914 27.5439 128.076 26.5857 130.294 27.1721C133.528 28.0272 135.699 30.9102 138.353 32.7418C139.726 33.7649 141.345 34.4101 143.046 34.613C144.521 34.7286 145.985 34.2793 147.141 33.3564C149.408 31.5683 150.275 28.4928 149.773 25.7238C149.193 22.5173 147.032 19.7692 144.662 17.6415C139.856 13.3737 133.617 11.0714 127.187 11.1933C123.908 11.2686 120.487 11.9448 117.661 13.6761C114.921 15.3555 112.803 18.165 112.526 21.4309C112.283 24.3054 113.827 27.3121 116.477 28.5714C117.102 28.8671 117.772 29.0561 118.459 29.1304C119.053 29.1981 119.048 28.2681 118.459 28.201Z" fill="#3F3D56"/>
<path d="M197.072 15.0261C197.072 15.1337 197.029 15.2368 196.953 15.3129C196.876 15.389 196.773 15.4319 196.665 15.4322H163.327C163.22 15.4322 163.116 15.3894 163.04 15.3133C162.964 15.2371 162.921 15.1338 162.921 15.0261C162.921 14.9184 162.964 14.8151 163.04 14.7389C163.116 14.6628 163.22 14.62 163.327 14.62H196.665C196.773 14.6203 196.876 14.6632 196.953 14.7393C197.029 14.8154 197.072 14.9185 197.072 15.0261Z" fill="#3F3D56"/>
<path d="M196.665 21.5239H163.327C163.22 21.5239 163.116 21.4811 163.04 21.4049C162.964 21.3288 162.921 21.2255 162.921 21.1178C162.921 21.0101 162.964 20.9068 163.04 20.8306C163.116 20.7545 163.22 20.7117 163.327 20.7117H196.665C196.773 20.7117 196.877 20.7545 196.953 20.8306C197.029 20.9068 197.072 21.0101 197.072 21.1178C197.072 21.2255 197.029 21.3288 196.953 21.4049C196.877 21.4811 196.773 21.5239 196.665 21.5239Z" fill="#3F3D56"/>
<path d="M196.665 27.6156H163.327C163.22 27.6156 163.116 27.5728 163.04 27.4966C162.964 27.4205 162.921 27.3172 162.921 27.2095C162.921 27.1017 162.964 26.9985 163.04 26.9223C163.116 26.8461 163.22 26.8033 163.327 26.8033H196.665C196.773 26.8033 196.877 26.8461 196.953 26.9223C197.029 26.9985 197.072 27.1017 197.072 27.2095C197.072 27.3172 197.029 27.4205 196.953 27.4966C196.877 27.5728 196.773 27.6156 196.665 27.6156Z" fill="#3F3D56"/>
<path d="M196.665 33.7072H163.327C163.22 33.7072 163.116 33.6645 163.04 33.5883C162.964 33.5121 162.921 33.4088 162.921 33.3011C162.921 33.1934 162.964 33.0901 163.04 33.014C163.116 32.9378 163.22 32.895 163.327 32.895H196.665C196.773 32.895 196.877 32.9378 196.953 33.014C197.029 33.0901 197.072 33.1934 197.072 33.3011C197.072 33.4088 197.029 33.5121 196.953 33.5883C196.877 33.6645 196.773 33.7072 196.665 33.7072Z" fill="#3F3D56"/>
<path d="M196.665 39.7989H163.327C163.22 39.7989 163.116 39.7561 163.04 39.68C162.964 39.6038 162.921 39.5005 162.921 39.3928C162.921 39.2851 162.964 39.1818 163.04 39.1056C163.116 39.0295 163.22 38.9867 163.327 38.9867H196.665C196.773 38.9867 196.877 39.0295 196.953 39.1056C197.029 39.1818 197.072 39.2851 197.072 39.3928C197.072 39.5005 197.029 39.6038 196.953 39.68C196.877 39.7561 196.773 39.7989 196.665 39.7989Z" fill="#3F3D56"/>
<path d="M196.665 45.8906H163.327C163.22 45.8906 163.116 45.8478 163.04 45.7717C162.964 45.6955 162.921 45.5922 162.921 45.4845C162.921 45.3768 162.964 45.2735 163.04 45.1973C163.116 45.1212 163.22 45.0784 163.327 45.0784H196.665C196.773 45.0784 196.877 45.1212 196.953 45.1973C197.029 45.2735 197.072 45.3768 197.072 45.4845C197.072 45.5922 197.029 45.6955 196.953 45.7717C196.877 45.8478 196.773 45.8906 196.665 45.8906Z" fill="#3F3D56"/>
<path d="M76.1734 100.129C75.0404 100.132 73.9465 99.7151 73.1037 98.9588C72.6319 98.5385 72.2511 98.0264 71.9847 97.4538C71.7183 96.8812 71.5718 96.2603 71.5543 95.6292L53.5127 82.5224C52.9683 82.1269 52.5162 81.6183 52.1875 81.0315C51.8588 80.4448 51.6613 79.7939 51.6087 79.1236C51.556 78.4533 51.6495 77.7795 51.8825 77.1487C52.1156 76.518 52.4827 75.9452 52.9587 75.4697L66.3907 62.0526C66.9442 61.4997 67.6493 61.1232 68.4171 60.9706C69.1848 60.8181 69.9805 60.8964 70.7037 61.1956C71.4269 61.4948 72.045 62.0015 72.4798 62.6516C72.9147 63.3017 73.1468 64.0661 73.1468 64.848C73.037 66.8991 72.2277 68.8508 70.8533 70.3787L61.7332 79.4888L76.0476 90.8863C76.0917 90.8833 76.1358 90.881 76.1806 90.881C77.3625 90.8808 78.4996 91.3323 79.359 92.1427C80.2184 92.9532 80.7349 94.0613 80.8027 95.2399C80.8705 96.4185 80.4844 97.5784 79.7236 98.4818C78.9628 99.3853 77.8849 99.9639 76.7108 100.099C76.5324 100.119 76.353 100.129 76.1734 100.129Z" fill="#FFB8B8"/>
<path d="M97.6122 177.545L102.453 175.74L97.7863 156.229L90.6414 158.894L97.6122 177.545Z" fill="#FFB8B8"/>
<path d="M113.467 176.749L98.2529 182.422L96.0584 176.55L105.603 172.991C107.107 172.43 108.772 172.489 110.232 173.155C111.692 173.821 112.828 175.039 113.39 176.541L113.467 176.749Z" fill="#2F2E41"/>
<path d="M54.0607 178.43H59.2281L61.6861 158.521L54.0599 158.522L54.0607 178.43Z" fill="#FFB8B8"/>
<path d="M69.1936 183.223L52.9535 183.224L52.9532 176.956L63.141 176.955C64.7462 176.955 66.2856 177.592 67.4207 178.726C68.5558 179.86 69.1936 181.397 69.1936 183.001L69.1936 183.223Z" fill="#2F2E41"/>
<path d="M59.6378 172.998C59.5798 172.998 59.5216 172.995 59.4633 172.989L53.9857 172.468C53.5414 172.426 53.128 172.223 52.8231 171.897C52.5182 171.572 52.343 171.146 52.3303 170.701C52.0143 158.852 51.218 99.0506 66.6239 85.3467C66.891 85.1121 67.2221 84.9626 67.5748 84.9174C70.3654 84.5353 79.7799 83.5981 83.7648 87.6019C84.0177 87.854 84.1928 88.1733 84.2694 88.5218L101.714 169.089C101.768 169.337 101.769 169.594 101.718 169.842C101.667 170.091 101.565 170.326 101.418 170.533C101.272 170.74 101.083 170.914 100.865 171.044C100.648 171.174 100.405 171.258 100.153 171.289L93.4645 172.124C93.2229 172.155 92.9777 172.137 92.7433 172.071C92.5088 172.005 92.2898 171.894 92.0992 171.743C91.9085 171.591 91.7501 171.404 91.6331 171.19C91.5161 170.977 91.443 170.743 91.418 170.501C90.7524 164.024 86.7535 131.128 73.3522 119.467C73.1709 119.308 72.9523 119.197 72.7168 119.144C72.4812 119.091 72.2361 119.098 72.0039 119.165C71.7765 119.228 71.5689 119.347 71.4007 119.513C71.2326 119.678 71.1093 119.884 71.0426 120.11C68.5618 128.218 60.5389 155.856 61.4609 171.061C61.4763 171.31 61.4406 171.559 61.3559 171.793C61.2713 172.027 61.1395 172.242 60.9687 172.423C60.7978 172.605 60.5916 172.749 60.3627 172.848C60.1338 172.947 59.8871 172.998 59.6378 172.998Z" fill="#2F2E41"/>
<path d="M70.1796 52.3811C75.6945 52.3811 80.1652 47.9153 80.1652 42.4065C80.1652 36.8978 75.6945 32.432 70.1796 32.432C64.6648 32.432 60.1941 36.8978 60.1941 42.4065C60.1941 47.9153 64.6648 52.3811 70.1796 52.3811Z" fill="#FFB8B8"/>
<path d="M60.3749 61.1916C60.3749 61.1916 69.6475 50.2451 77.2343 59.0865C82.1158 64.7753 84.6976 72.0783 84.4749 79.5676L84.1888 89.1894L66.6971 86.4528L60.3749 61.1916Z" fill="#00A907"/>
<path d="M84.7427 82.4025C84.6699 82.4025 84.5971 82.401 84.5241 82.398C83.7768 82.367 83.0451 82.1745 82.3796 81.8335C81.7141 81.4926 81.1306 81.0115 80.6693 80.4233L69.32 65.9687C68.8369 65.3535 68.5474 64.609 68.4879 63.8293C68.4284 63.0497 68.6017 62.27 68.9859 61.5887C69.37 60.9075 69.9478 60.3554 70.6461 60.0021C71.3444 59.6488 72.1319 59.5104 72.909 59.6042L74.5068 59.7971C75.5272 59.976 76.4555 60.4984 77.1374 61.2774L86.0903 72.6798L99.1358 59.8524C99.1382 59.8084 99.1411 59.7644 99.1465 59.72C99.2555 58.8172 99.6286 57.9666 100.219 57.2745C100.809 56.5825 101.591 56.0796 102.466 55.829C103.341 55.5783 104.271 55.5909 105.139 55.8652C106.007 56.1395 106.774 56.6633 107.346 57.3711C107.917 58.0789 108.267 58.9393 108.351 59.8447C108.436 60.7501 108.251 61.6602 107.821 62.4613C107.39 63.2624 106.732 63.9189 105.93 64.3487C105.128 64.7785 104.217 64.9625 103.31 64.8777L88.531 80.7533C88.0471 81.2738 87.4609 81.6889 86.8091 81.9727C86.1572 82.2564 85.4537 82.4028 84.7427 82.4025Z" fill="#FFB8B8"/>
<path d="M71.7983 44.1321L76.0884 39.0835C77.194 37.7824 78.3505 36.3652 78.5069 34.6658C78.6783 32.8028 77.5439 30.992 75.9931 29.9432C74.4422 28.8943 72.5379 28.4997 70.6707 28.3548C67.2075 28.0862 63.5633 28.6579 60.7164 30.6459C57.8694 32.6338 56.0068 36.2228 56.701 39.6226C57.2476 42.2996 59.2616 44.8639 58.4788 47.4817C57.6223 50.346 54.1097 51.2248 51.2418 52.0789C46.4279 53.5126 41.8313 56.3351 39.3086 60.6741C36.7858 65.0131 36.7968 70.9961 40.1597 74.7234C42.3373 77.137 45.6216 78.3575 48.8691 78.5411C52.1166 78.7248 55.349 77.9608 58.4288 76.9158C61.2652 75.9534 64.071 74.7155 66.3041 72.721C68.5371 70.7265 70.1458 67.8722 70.0761 64.8808C70.0098 62.0299 68.481 59.433 67.853 56.6512C67.3575 54.3219 67.4875 51.9031 68.2298 49.6401C68.972 47.377 70.3 45.3503 72.0793 43.7653" fill="#2F2E41"/>
<path d="M280.01 144.982H177.964C177.209 144.981 176.486 144.681 175.952 144.148C175.419 143.615 175.119 142.893 175.118 142.139V86.9078C175.119 86.1542 175.419 85.4316 175.952 84.8986C176.486 84.3657 177.209 84.0659 177.964 84.0651H280.01C280.765 84.0659 281.488 84.3657 282.022 84.8986C282.555 85.4316 282.855 86.1542 282.856 86.9078V142.139C282.855 142.893 282.555 143.615 282.022 144.148C281.488 144.681 280.765 144.981 280.01 144.982ZM177.964 84.8773C177.425 84.8779 176.908 85.0921 176.527 85.4727C176.146 85.8534 175.931 86.3695 175.931 86.9078V142.139C175.931 142.677 176.146 143.193 176.527 143.574C176.908 143.955 177.425 144.169 177.964 144.17H280.01C280.549 144.169 281.066 143.955 281.447 143.574C281.828 143.193 282.042 142.677 282.043 142.139V86.9078C282.042 86.3695 281.828 85.8534 281.447 85.4727C281.066 85.0921 280.549 84.8779 280.01 84.8773H177.964Z" fill="#3F3D56"/>
<path d="M218.101 108.089C216.883 105.177 214.991 102.747 212.245 101.137C209.36 99.445 206.067 98.0362 202.749 97.528C199.428 97.0378 196.041 97.2271 192.795 98.0844C191.231 98.4893 189.506 98.9595 188.186 99.9287C186.924 100.855 186.06 102.379 185.357 103.749C184.683 105.06 184.263 106.505 184.627 107.974C185.024 109.312 185.85 110.482 186.979 111.304C187.939 112.062 189.282 113.065 190.567 112.596C190.64 112.569 190.71 112.534 190.775 112.491C192.993 113.165 195.199 112.185 197.477 111.417C198.861 110.95 200.252 110.714 201.642 111.297C203.001 111.932 204.147 112.944 204.944 114.213C205.721 115.369 206.233 116.681 207.086 117.79C207.51 118.36 208.049 118.835 208.668 119.185C209.288 119.534 209.974 119.75 210.682 119.818C213.434 120.126 217.086 119.842 218.671 117.24C220.361 114.466 219.255 110.85 218.101 108.089ZM190.01 103.83C190.419 103.876 190.827 103.922 191.235 103.969C190.457 104.108 189.73 104.449 189.125 104.957C188.895 105.151 188.681 105.364 188.487 105.594C188.492 105.575 188.496 105.557 188.502 105.538C188.622 105.165 188.818 104.821 189.077 104.527C189.337 104.233 189.655 103.995 190.01 103.83ZM203.713 106.434C203.804 106.501 203.909 106.546 204.021 106.565C204.034 106.567 204.047 106.569 204.06 106.571C204.136 106.615 204.212 106.658 204.289 106.701C204.28 106.713 204.273 106.726 204.265 106.738C204.079 106.719 203.892 106.701 203.705 106.682C203.718 106.6 203.721 106.516 203.713 106.434ZM208.653 112.268C208.611 112.312 208.575 112.36 208.544 112.411C208.526 112.385 208.508 112.358 208.489 112.331C208.54 112.302 208.595 112.28 208.653 112.268ZM211.843 115.717C212.028 115.741 212.213 115.765 212.398 115.79C212.363 115.85 212.338 115.914 212.322 115.982C212.191 115.986 212.059 115.988 211.927 115.989L211.843 115.717ZM214.522 114.144L214.745 114.106C214.862 114.087 214.974 114.043 215.072 113.976C215.072 113.989 215.073 114.003 215.074 114.016C215.075 114.06 215.079 114.116 215.085 114.179C215.067 114.211 215.048 114.243 215.029 114.274C214.86 114.231 214.691 114.187 214.522 114.144ZM205.008 104.316C204.919 104.242 204.819 104.183 204.711 104.141C204.187 103.939 203.65 103.771 203.104 103.639C203.023 103.563 202.943 103.484 202.865 103.403C203.326 103.494 203.781 103.61 204.23 103.75C204.805 103.934 205.368 104.151 205.919 104.399C205.615 104.365 205.311 104.337 205.008 104.316ZM210.133 104.659C209.866 104.492 209.596 104.328 209.326 104.167C209.603 104.323 209.877 104.487 210.147 104.659L210.133 104.659ZM215.659 107.178C214.942 106.302 214.149 105.49 213.289 104.753C213.355 104.601 213.388 104.436 213.387 104.27C214.288 105.118 215.054 106.099 215.659 107.178ZM205.353 100.007C205.24 99.981 205.126 99.9546 205.013 99.929C203.936 99.6861 202.838 99.4244 201.731 99.2024C201.79 99.2094 201.85 99.2151 201.909 99.2226C203.079 99.3774 204.232 99.64 205.353 100.007Z" fill="#00A907"/>
<path d="M206.29 130.758C205.264 130.73 203.988 130.694 203.005 129.977C202.713 129.755 202.472 129.471 202.301 129.146C202.129 128.821 202.031 128.463 202.013 128.096C201.995 127.835 202.038 127.574 202.138 127.332C202.238 127.091 202.393 126.876 202.59 126.704C202.883 126.486 203.226 126.344 203.588 126.292C203.949 126.24 204.318 126.279 204.661 126.406L203.824 120.295L204.439 120.211L205.423 127.395L204.91 127.16C204.315 126.887 203.498 126.749 202.99 127.177C202.866 127.289 202.769 127.428 202.707 127.584C202.645 127.739 202.619 127.907 202.633 128.074C202.648 128.347 202.722 128.614 202.849 128.856C202.977 129.098 203.155 129.31 203.371 129.477C204.136 130.035 205.153 130.107 206.307 130.139L206.29 130.758Z" fill="#3F3D56"/>
<path d="M200.785 120.822H197.444V121.442H200.785V120.822Z" fill="#3F3D56"/>
<path d="M211.33 120.822H207.989V121.442H211.33V120.822Z" fill="#3F3D56"/>
<path d="M191.64 112.266C188.95 111.96 186.867 109.385 186.638 106.773C186.365 103.665 188.177 100.713 190.663 98.9689C193.263 97.1451 196.502 96.3834 199.636 96.2158C205.749 95.9119 211.757 97.89 216.491 101.765C218.839 103.713 221.032 106.195 221.863 109.192C222.585 111.796 221.998 114.745 219.902 116.568C219.383 117.015 218.778 117.349 218.123 117.55C217.469 117.752 216.78 117.815 216.1 117.737C214.473 117.569 212.973 116.714 211.674 115.771C209.147 113.936 207.073 111.38 203.995 110.421C201.738 109.718 198.808 110.336 197.429 112.375C197.116 112.842 196.913 113.374 196.836 113.93C196.808 114.049 196.825 114.174 196.886 114.28C196.946 114.386 197.044 114.465 197.161 114.502C197.28 114.534 197.407 114.518 197.514 114.457C197.621 114.396 197.7 114.296 197.733 114.177C198.095 111.609 201.256 110.651 203.475 111.237C206.709 112.092 208.88 114.975 211.534 116.807C212.907 117.83 214.526 118.475 216.227 118.678C217.702 118.794 219.166 118.345 220.322 117.422C222.589 115.633 223.456 112.558 222.954 109.789C222.374 106.583 220.213 103.834 217.843 101.707C213.037 97.4389 206.798 95.1366 200.368 95.2585C197.089 95.3337 193.667 96.01 190.842 97.7413C188.102 99.4206 185.984 102.23 185.707 105.496C185.463 108.371 187.007 111.377 189.658 112.637C190.283 112.932 190.953 113.121 191.64 113.196C192.234 113.263 192.229 112.333 191.64 112.266Z" fill="#3F3D56"/>
<path d="M269.846 99.4973H236.508C236.4 99.4973 236.297 99.4545 236.221 99.3783C236.145 99.3022 236.102 99.1989 236.102 99.0912C236.102 98.9835 236.145 98.8802 236.221 98.804C236.297 98.7279 236.4 98.6851 236.508 98.6851H269.846C269.954 98.6851 270.057 98.7279 270.134 98.804C270.21 98.8802 270.253 98.9835 270.253 99.0912C270.253 99.1989 270.21 99.3022 270.134 99.3783C270.057 99.4545 269.954 99.4973 269.846 99.4973Z" fill="#3F3D56"/>
<path d="M269.846 105.589H236.508C236.4 105.589 236.297 105.546 236.221 105.47C236.145 105.394 236.102 105.291 236.102 105.183C236.102 105.075 236.145 104.972 236.221 104.896C236.297 104.82 236.4 104.777 236.508 104.777H269.846C269.954 104.777 270.057 104.82 270.134 104.896C270.21 104.972 270.253 105.075 270.253 105.183C270.253 105.291 270.21 105.394 270.134 105.47C270.057 105.546 269.954 105.589 269.846 105.589Z" fill="#3F3D56"/>
<path d="M269.846 111.681H236.508C236.4 111.681 236.297 111.638 236.221 111.562C236.145 111.486 236.102 111.382 236.102 111.275C236.102 111.167 236.145 111.064 236.221 110.987C236.297 110.911 236.4 110.868 236.508 110.868H269.846C269.954 110.868 270.057 110.911 270.134 110.987C270.21 111.064 270.253 111.167 270.253 111.275C270.253 111.382 270.21 111.486 270.134 111.562C270.057 111.638 269.954 111.681 269.846 111.681Z" fill="#3F3D56"/>
<path d="M269.846 117.772H236.508C236.4 117.772 236.297 117.73 236.221 117.653C236.145 117.577 236.102 117.474 236.102 117.366C236.102 117.259 236.145 117.155 236.221 117.079C236.297 117.003 236.4 116.96 236.508 116.96H269.846C269.954 116.96 270.057 117.003 270.134 117.079C270.21 117.155 270.253 117.259 270.253 117.366C270.253 117.474 270.21 117.577 270.134 117.653C270.057 117.73 269.954 117.772 269.846 117.772Z" fill="#3F3D56"/>
<path d="M269.846 123.864H236.508C236.4 123.864 236.297 123.821 236.221 123.745C236.145 123.669 236.102 123.566 236.102 123.458C236.102 123.35 236.145 123.247 236.221 123.171C236.297 123.095 236.4 123.052 236.508 123.052H269.846C269.954 123.052 270.057 123.095 270.134 123.171C270.21 123.247 270.253 123.35 270.253 123.458C270.253 123.566 270.21 123.669 270.134 123.745C270.057 123.821 269.954 123.864 269.846 123.864Z" fill="#3F3D56"/>
<path d="M269.846 129.956H236.508C236.4 129.956 236.297 129.913 236.221 129.837C236.145 129.761 236.102 129.657 236.102 129.55C236.102 129.442 236.145 129.339 236.221 129.263C236.297 129.186 236.4 129.144 236.508 129.144H269.846C269.954 129.144 270.057 129.186 270.134 129.263C270.21 129.339 270.253 129.442 270.253 129.55C270.253 129.657 270.21 129.761 270.134 129.837C270.057 129.913 269.954 129.956 269.846 129.956Z" fill="#3F3D56"/>
<path d="M332.125 85.9639C338.017 85.9639 342.793 81.1931 342.793 75.308C342.793 69.4229 338.017 64.6521 332.125 64.6521C326.234 64.6521 321.458 69.4229 321.458 75.308C321.458 81.1931 326.234 85.9639 332.125 85.9639Z" fill="#FFB8B8"/>
<path d="M300.333 232.304L295.26 230.689L299.083 210.374L306.57 212.757L300.333 232.304Z" fill="#FFB8B8"/>
<path d="M291.868 228.012L301.882 231.201L299.919 237.354L283.974 232.278L284.048 232.048C284.296 231.27 284.695 230.548 285.222 229.924C285.75 229.301 286.395 228.787 287.121 228.412C287.847 228.037 288.64 227.809 289.455 227.74C290.269 227.672 291.089 227.764 291.868 228.012Z" fill="#2F2E41"/>
<path d="M337.245 232.199H331.92L329.385 211.683H337.245V232.199Z" fill="#FFB8B8"/>
<path d="M327.874 230.68H338.385V237.138H321.65V236.897C321.65 236.08 321.811 235.272 322.124 234.518C322.437 233.763 322.895 233.078 323.473 232.501C324.051 231.923 324.737 231.465 325.493 231.153C326.248 230.84 327.057 230.68 327.874 230.68Z" fill="#2F2E41"/>
<path d="M337.089 225.541L335.291 225.274C329.841 224.462 329.514 224.414 328.649 224.034C328.207 223.84 328.176 220.91 328.441 204.437C328.636 192.345 328.878 177.297 328.408 169.218C328.388 168.899 328.262 168.596 328.049 168.358C327.836 168.12 327.549 167.96 327.234 167.905C326.92 167.849 326.595 167.901 326.314 168.053C326.032 168.204 325.81 168.445 325.683 168.738C321.627 178.094 314.822 199.03 310.32 212.884C308.754 217.704 307.517 221.51 306.734 223.791C306.583 224.223 306.276 224.583 305.873 224.8C305.471 225.018 305.002 225.078 304.557 224.968C300.852 224.043 301.1 223.65 295.822 222.286C295.366 222.17 294.972 221.882 294.723 221.482C294.474 221.082 294.39 220.602 294.488 220.141C295.443 215.645 312.911 142.737 314.248 135.806C314.293 135.569 314.385 135.343 314.518 135.141C314.651 134.94 314.823 134.766 315.024 134.632C315.224 134.497 315.45 134.403 315.687 134.355C315.924 134.308 316.168 134.308 316.405 134.355C320.338 135.147 322.731 135.987 326.617 136.799C330.811 137.675 335.148 138.581 339.378 139.427C339.799 139.512 340.176 139.743 340.443 140.079C341.489 141.399 343.041 142.141 344.685 142.925C345.792 143.454 343.282 143.407 344.247 144.17C348.154 147.259 342.535 209.995 339.141 224.165C339.032 224.608 338.761 224.995 338.381 225.25C338.002 225.504 337.541 225.608 337.089 225.541Z" fill="#2F2E41"/>
<path d="M333.873 154.436C333.752 153.885 333.753 153.315 333.876 152.765C334 152.214 334.242 151.698 334.587 151.251C334.932 150.805 335.371 150.439 335.872 150.181C336.374 149.922 336.926 149.776 337.49 149.754L346.112 140.032L351.466 146.494L341.551 153.729C341.526 154.678 341.153 155.585 340.504 156.278C339.854 156.971 338.973 157.402 338.026 157.489C337.08 157.576 336.134 157.314 335.369 156.751C334.603 156.188 334.071 155.365 333.873 154.436Z" fill="#FFB8B8"/>
<path d="M336.672 84.6323C336.05 81.9925 339.198 76.3125 338.575 73.6727C338.153 71.885 333.945 73.1002 332.963 71.5475C331.981 69.9948 330.336 68.7369 328.497 68.7163C326.384 68.6926 324.304 70.2584 322.303 69.5817C320.278 68.8974 319.631 66.1285 320.526 64.1902C321.421 62.2518 323.349 61.0166 325.254 60.0487C328.497 58.4006 332.273 57.197 335.745 58.2874C337.843 58.9466 339.598 60.375 341.296 61.772C342.843 63.0454 344.417 64.3477 345.499 66.0341C347.619 69.3377 347.491 73.789 345.679 77.2708C343.868 80.7527 340.568 83.3078 336.931 84.7909" fill="#2F2E41"/>
<path d="M310.478 146.063C311.63 144.142 313.378 135.14 315.533 120.03C317.001 109.715 318.28 99.2347 318.914 93.8811C318.964 93.4478 319.122 93.0342 319.375 92.6789C319.628 92.3236 319.968 92.0384 320.362 91.85C320.773 91.6515 321.183 91.4636 321.589 91.2864C326.843 89.0036 332.168 88.2473 337.414 89.0381C342.653 89.8418 347.567 92.0783 351.611 95.4998L351.659 95.5448L351.671 95.6091C351.694 95.7281 353.897 107.589 349.384 115.602C344.933 123.508 344.881 144.446 344.881 144.657V144.926L344.622 144.852C337.697 142.876 310.949 146.334 310.679 146.369L310.263 146.423L310.478 146.063Z" fill="#CCCCCC"/>
<path d="M338.893 147.67L352.495 129.553L345.481 114.54L345.991 96.7333L351.741 95.672L351.802 95.7025C354.595 97.3346 356.761 99.8546 357.952 102.86C359.23 106.05 361.879 116.904 363.877 125.447C364.399 127.646 364.347 129.942 363.726 132.115C363.105 134.288 361.936 136.265 360.331 137.857L343.644 154.525L338.893 147.67Z" fill="#CCCCCC"/>
<path d="M281.79 111.766C282.115 111.305 282.538 110.921 283.028 110.641C283.518 110.361 284.063 110.191 284.626 110.144C285.188 110.098 285.754 110.174 286.284 110.37C286.813 110.565 287.293 110.874 287.691 111.275L300.691 111.075L299.528 119.382L287.492 116.951C286.774 117.573 285.852 117.91 284.902 117.898C283.951 117.887 283.038 117.527 282.336 116.888C281.633 116.249 281.189 115.375 281.089 114.431C280.988 113.487 281.238 112.539 281.79 111.766Z" fill="#FFB8B8"/>
<path d="M288.316 119.032L290.175 110.904L312.74 108.713L318.925 93.8522L319.106 93.4134L321.538 91.3189L321.589 91.2864C326.843 89.0038 332.167 88.2475 337.415 89.0381L337.599 89.0661L337.587 89.2517C337.469 91.1534 336.98 93.0138 336.148 94.7284C333.814 99.5645 319.453 120.122 319.308 120.329L319.244 120.421L288.316 119.032Z" fill="#CCCCCC"/>
<path d="M396.49 237.981H241.59C241.483 237.981 241.379 237.939 241.303 237.862C241.227 237.786 241.184 237.683 241.184 237.575C241.184 237.468 241.227 237.364 241.303 237.288C241.379 237.212 241.483 237.169 241.59 237.169H396.49C396.598 237.169 396.701 237.212 396.777 237.288C396.854 237.364 396.896 237.468 396.896 237.575C396.896 237.683 396.854 237.786 396.777 237.862C396.701 237.939 396.598 237.981 396.49 237.981Z" fill="#3F3D56"/>
<path d="M155.806 183.156H0.90656C0.798734 183.156 0.695326 183.114 0.619082 183.037C0.542837 182.961 0.5 182.858 0.5 182.75C0.5 182.643 0.542837 182.539 0.619082 182.463C0.695326 182.387 0.798734 182.344 0.90656 182.344H155.806C155.914 182.344 156.017 182.387 156.094 182.463C156.17 182.539 156.213 182.643 156.213 182.75C156.213 182.858 156.17 182.961 156.094 183.037C156.017 183.114 155.914 183.156 155.806 183.156Z" fill="#3F3D56"/>
</g>
<defs>
<radialGradient id="paint0_radial_1_46" cx="0" cy="0" r="1" gradientUnits="userSpaceOnUse" gradientTransform="translate(200 119) rotate(90) scale(119 200)">
<stop stop-color="#E5EFE5"/>
<stop offset="1" stop-color="#EFECE5" stop-opacity="0"/>
</radialGradient>
<clipPath id="clip0_1_46">
<rect width="400" height="238" fill="white" transform="translate(0.5)"/>
</clipPath>
</defs>
</svg>
